<mxfile host="app.diagrams.net" modified="2021-04-12T03:08:34.971Z" agent="5.0 (Windows NT 10.0; Win64; x64) AppleWebKit/537.36 (KHTML, like Gecko) Chrome/89.0.4389.114 Safari/537.36" etag="g5ePT3dx6eeS_Z3lY1Xv" version="14.5.3" type="github">
  <diagram id="4x05Q2ZdjeqCRQ06WLCp" name="第 1 页">
    <mxGraphModel dx="1629" dy="2176" grid="1" gridSize="10" guides="1" tooltips="1" connect="1" arrows="1" fold="1" page="1" pageScale="1" pageWidth="1200" pageHeight="1600" math="0" shadow="0">
      <root>
        <mxCell id="0" />
        <mxCell id="1" parent="0" />
        <mxCell id="RHrRMHpAwSxLzkuYYqGA-1" value="ConfigureFile" style="swimlane;fontStyle=0;childLayout=stackLayout;horizontal=1;startSize=26;fillColor=none;horizontalStack=0;resizeParent=1;resizeParentMax=0;resizeLast=0;collapsible=1;marginBottom=0;" parent="1" vertex="1">
          <mxGeometry x="620" y="-1340" width="160" height="104" as="geometry" />
        </mxCell>
        <mxCell id="RHrRMHpAwSxLzkuYYqGA-2" value="- fileName: String" style="text;strokeColor=none;fillColor=none;align=left;verticalAlign=top;spacingLeft=4;spacingRight=4;overflow=hidden;rotatable=0;points=[[0,0.5],[1,0.5]];portConstraint=eastwest;" parent="RHrRMHpAwSxLzkuYYqGA-1" vertex="1">
          <mxGeometry y="26" width="160" height="26" as="geometry" />
        </mxCell>
        <mxCell id="RHrRMHpAwSxLzkuYYqGA-3" value="- configure: JSONObject" style="text;strokeColor=none;fillColor=none;align=left;verticalAlign=top;spacingLeft=4;spacingRight=4;overflow=hidden;rotatable=0;points=[[0,0.5],[1,0.5]];portConstraint=eastwest;" parent="RHrRMHpAwSxLzkuYYqGA-1" vertex="1">
          <mxGeometry y="52" width="160" height="26" as="geometry" />
        </mxCell>
        <mxCell id="RHrRMHpAwSxLzkuYYqGA-4" value="- conf: Conf" style="text;strokeColor=none;fillColor=none;align=left;verticalAlign=top;spacingLeft=4;spacingRight=4;overflow=hidden;rotatable=0;points=[[0,0.5],[1,0.5]];portConstraint=eastwest;" parent="RHrRMHpAwSxLzkuYYqGA-1" vertex="1">
          <mxGeometry y="78" width="160" height="26" as="geometry" />
        </mxCell>
        <mxCell id="RHrRMHpAwSxLzkuYYqGA-5" value="Conf" style="swimlane;fontStyle=0;childLayout=stackLayout;horizontal=1;startSize=26;fillColor=none;horizontalStack=0;resizeParent=1;resizeParentMax=0;resizeLast=0;collapsible=1;marginBottom=0;" parent="1" vertex="1">
          <mxGeometry x="940" y="-1262" width="190" height="78" as="geometry" />
        </mxCell>
        <mxCell id="RHrRMHpAwSxLzkuYYqGA-6" value="- classPathLocation: String" style="text;strokeColor=none;fillColor=none;align=left;verticalAlign=top;spacingLeft=4;spacingRight=4;overflow=hidden;rotatable=0;points=[[0,0.5],[1,0.5]];portConstraint=eastwest;" parent="RHrRMHpAwSxLzkuYYqGA-5" vertex="1">
          <mxGeometry y="26" width="190" height="26" as="geometry" />
        </mxCell>
        <mxCell id="RHrRMHpAwSxLzkuYYqGA-7" value="- timeout: long" style="text;strokeColor=none;fillColor=none;align=left;verticalAlign=top;spacingLeft=4;spacingRight=4;overflow=hidden;rotatable=0;points=[[0,0.5],[1,0.5]];portConstraint=eastwest;" parent="RHrRMHpAwSxLzkuYYqGA-5" vertex="1">
          <mxGeometry y="52" width="190" height="26" as="geometry" />
        </mxCell>
        <mxCell id="RHrRMHpAwSxLzkuYYqGA-9" value="PageManagerPool" style="swimlane;fontStyle=0;childLayout=stackLayout;horizontal=1;startSize=26;fillColor=none;horizontalStack=0;resizeParent=1;resizeParentMax=0;resizeLast=0;collapsible=1;marginBottom=0;" parent="1" vertex="1">
          <mxGeometry x="993" y="-950" width="230" height="52" as="geometry" />
        </mxCell>
        <mxCell id="RHrRMHpAwSxLzkuYYqGA-10" value="- pageManagers: ConcurrentHashMap" style="text;strokeColor=none;fillColor=none;align=left;verticalAlign=top;spacingLeft=4;spacingRight=4;overflow=hidden;rotatable=0;points=[[0,0.5],[1,0.5]];portConstraint=eastwest;" parent="RHrRMHpAwSxLzkuYYqGA-9" vertex="1">
          <mxGeometry y="26" width="230" height="26" as="geometry" />
        </mxCell>
        <mxCell id="RHrRMHpAwSxLzkuYYqGA-11" value="PageManager" style="swimlane;fontStyle=0;childLayout=stackLayout;horizontal=1;startSize=26;fillColor=none;horizontalStack=0;resizeParent=1;resizeParentMax=0;resizeLast=0;collapsible=1;marginBottom=0;" parent="1" vertex="1">
          <mxGeometry x="1420" y="-924" width="230" height="240" as="geometry" />
        </mxCell>
        <mxCell id="RHrRMHpAwSxLzkuYYqGA-12" value="- jsProperties: GlobalJsProperties" style="text;strokeColor=none;fillColor=none;align=left;verticalAlign=top;spacingLeft=4;spacingRight=4;overflow=hidden;rotatable=0;points=[[0,0.5],[1,0.5]];portConstraint=eastwest;" parent="RHrRMHpAwSxLzkuYYqGA-11" vertex="1">
          <mxGeometry y="26" width="230" height="26" as="geometry" />
        </mxCell>
        <mxCell id="RHrRMHpAwSxLzkuYYqGA-13" value="- configureFile: ConfigureFile" style="text;strokeColor=none;fillColor=none;align=left;verticalAlign=top;spacingLeft=4;spacingRight=4;overflow=hidden;rotatable=0;points=[[0,0.5],[1,0.5]];portConstraint=eastwest;" parent="RHrRMHpAwSxLzkuYYqGA-11" vertex="1">
          <mxGeometry y="52" width="230" height="26" as="geometry" />
        </mxCell>
        <mxCell id="RHrRMHpAwSxLzkuYYqGA-14" value="- sqlParser: SqlParser" style="text;strokeColor=none;fillColor=none;align=left;verticalAlign=top;spacingLeft=4;spacingRight=4;overflow=hidden;rotatable=0;points=[[0,0.5],[1,0.5]];portConstraint=eastwest;" parent="RHrRMHpAwSxLzkuYYqGA-11" vertex="1">
          <mxGeometry y="78" width="230" height="22" as="geometry" />
        </mxCell>
        <mxCell id="RHrRMHpAwSxLzkuYYqGA-15" value="- nameList: List" style="text;strokeColor=none;fillColor=none;align=left;verticalAlign=top;spacingLeft=4;spacingRight=4;overflow=hidden;rotatable=0;points=[[0,0.5],[1,0.5]];portConstraint=eastwest;" parent="RHrRMHpAwSxLzkuYYqGA-11" vertex="1">
          <mxGeometry y="100" width="230" height="22" as="geometry" />
        </mxCell>
        <mxCell id="RHrRMHpAwSxLzkuYYqGA-16" value="- url: String" style="text;strokeColor=none;fillColor=none;align=left;verticalAlign=top;spacingLeft=4;spacingRight=4;overflow=hidden;rotatable=0;points=[[0,0.5],[1,0.5]];portConstraint=eastwest;" parent="RHrRMHpAwSxLzkuYYqGA-11" vertex="1">
          <mxGeometry y="122" width="230" height="22" as="geometry" />
        </mxCell>
        <mxCell id="RHrRMHpAwSxLzkuYYqGA-17" value="- abstractPageComponents: Map" style="text;strokeColor=none;fillColor=none;align=left;verticalAlign=top;spacingLeft=4;spacingRight=4;overflow=hidden;rotatable=0;points=[[0,0.5],[1,0.5]];portConstraint=eastwest;" parent="RHrRMHpAwSxLzkuYYqGA-11" vertex="1">
          <mxGeometry y="144" width="230" height="22" as="geometry" />
        </mxCell>
        <mxCell id="RHrRMHpAwSxLzkuYYqGA-18" value="- documentMap: Map" style="text;strokeColor=none;fillColor=none;align=left;verticalAlign=top;spacingLeft=4;spacingRight=4;overflow=hidden;rotatable=0;points=[[0,0.5],[1,0.5]];portConstraint=eastwest;" parent="RHrRMHpAwSxLzkuYYqGA-11" vertex="1">
          <mxGeometry y="166" width="230" height="22" as="geometry" />
        </mxCell>
        <mxCell id="RHrRMHpAwSxLzkuYYqGA-19" value="- isSingleton: Boolean" style="text;strokeColor=none;fillColor=none;align=left;verticalAlign=top;spacingLeft=4;spacingRight=4;overflow=hidden;rotatable=0;points=[[0,0.5],[1,0.5]];portConstraint=eastwest;" parent="RHrRMHpAwSxLzkuYYqGA-11" vertex="1">
          <mxGeometry y="188" width="230" height="22" as="geometry" />
        </mxCell>
        <mxCell id="RHrRMHpAwSxLzkuYYqGA-20" value="- createTime: long" style="text;strokeColor=none;fillColor=none;align=left;verticalAlign=top;spacingLeft=4;spacingRight=4;overflow=hidden;rotatable=0;points=[[0,0.5],[1,0.5]];portConstraint=eastwest;" parent="RHrRMHpAwSxLzkuYYqGA-11" vertex="1">
          <mxGeometry y="210" width="230" height="30" as="geometry" />
        </mxCell>
        <mxCell id="RHrRMHpAwSxLzkuYYqGA-21" value="Use" style="endArrow=open;endSize=12;dashed=1;html=1;entryX=0;entryY=0.058;entryDx=0;entryDy=0;entryPerimeter=0;exitX=1;exitY=0.5;exitDx=0;exitDy=0;" parent="1" target="RHrRMHpAwSxLzkuYYqGA-11" edge="1" source="RHrRMHpAwSxLzkuYYqGA-10">
          <mxGeometry width="160" relative="1" as="geometry">
            <mxPoint x="1233" y="-910" as="sourcePoint" />
            <mxPoint x="1393" y="-910" as="targetPoint" />
          </mxGeometry>
        </mxCell>
        <mxCell id="cy5oAZm6gimo8P_QIxPD-1" value="1" style="endArrow=open;html=1;endSize=12;startArrow=diamondThin;startSize=14;startFill=0;edgeStyle=orthogonalEdgeStyle;align=left;verticalAlign=bottom;" edge="1" parent="1">
          <mxGeometry x="-1" y="3" relative="1" as="geometry">
            <mxPoint x="780" y="-1250" as="sourcePoint" />
            <mxPoint x="940" y="-1250" as="targetPoint" />
          </mxGeometry>
        </mxCell>
      </root>
    </mxGraphModel>
  </diagram>
</mxfile>
